<svg width="17" height="16" viewBox="0 0 17 16" fill="none" xmlns="http://www.w3.org/2000/svg">
<g id="Bill--Streamline-Solar-Ar">
<path id="Vector" d="M12.5622 14.4995C13.0255 14.0877 13.7237 14.0877 14.187 14.4995C14.5018 14.7793 14.9995 14.5558 14.9995 14.1347V1.86535C14.9995 1.44416 14.5018 1.22072 14.187 1.50053C13.7237 1.91241 13.0255 1.91241 12.5622 1.50053C12.0988 1.08866 11.4007 1.08872 10.9373 1.50053C10.4739 1.91235 9.7758 1.91241 9.31248 1.50053C8.84917 1.08866 8.15092 1.08872 7.68761 1.50053C7.2243 1.91235 6.52611 1.91241 6.06274 1.50053C5.59942 1.08872 4.90124 1.08872 4.43792 1.50053C3.97455 1.91241 3.27636 1.91241 2.81305 1.50053C2.49824 1.22072 2.00061 1.44416 2.00061 1.86535V14.1347C2.00061 14.5558 2.49824 14.7793 2.81305 14.4995C3.27636 14.0877 3.97455 14.0877 4.43792 14.4995C4.90124 14.9113 5.59942 14.9113 6.06274 14.4995C6.52611 14.0877 7.2243 14.0877 7.68761 14.4995C8.15092 14.9114 8.84911 14.9113 9.31248 14.4995C9.77586 14.0877 10.474 14.0877 10.9374 14.4995C11.4007 14.9114 12.0989 14.9113 12.5622 14.4995Z" stroke="#8470FF" stroke-width="1.5"/>
<path id="Vector_2" d="M5.25037 10.5275H11.7497" stroke="#8470FF" stroke-width="1.3" stroke-linecap="round"/>
<path id="Vector_3" d="M5.25037 7.99988H11.7497" stroke="#8470FF" stroke-width="1.3" stroke-linecap="round"/>
<path id="Vector_4" d="M5.25037 5.47241H11.7497" stroke="#8470FF" stroke-width="1.3" stroke-linecap="round"/>
</g>
</svg>
