<svg width="17" height="16" viewBox="0 0 17 16" fill="none" xmlns="http://www.w3.org/2000/svg">
<g id="Mosaic HTML Demo - Home 1" clip-path="url(#clip0_104_4366)">
<path id="Vector" d="M9.50002 6.855C10.3037 6.61278 10.9936 6.08995 11.4442 5.38174C11.8947 4.67353 12.0759 3.82706 11.9548 2.99647C11.8336 2.16588 11.4181 1.40644 10.784 0.856458C10.1499 0.306476 9.33939 0.00253904 8.50002 1.30544e-06C7.65878 -0.000724911 6.84542 0.301566 6.20885 0.851532C5.57228 1.4015 5.15509 2.16234 5.03366 2.99477C4.91222 3.8272 5.09467 4.67552 5.5476 5.38442C6.00053 6.09332 6.69363 6.61537 7.50002 6.855V8.511L6.03402 9.65C5.34946 9.16199 4.51211 8.93668 3.67509 9.01528C2.83807 9.09388 2.05731 9.47114 1.47557 10.0781C0.893831 10.685 0.549989 11.481 0.506919 12.3206C0.463848 13.1602 0.724425 13.9873 1.241 14.6506C1.75758 15.3138 2.49564 15.769 3.32023 15.9328C4.14481 16.0967 5.00082 15.9582 5.73172 15.5428C6.46263 15.1274 7.01959 14.4628 7.30076 13.6705C7.58194 12.8782 7.56854 12.0112 7.26302 11.228L8.50002 10.267L9.73802 11.229C9.4325 12.0122 9.4191 12.8792 9.70028 13.6715C9.98145 14.4638 10.5384 15.1284 11.2693 15.5438C12.0002 15.9592 12.8562 16.0977 13.6808 15.9338C14.5054 15.77 15.2435 15.3148 15.76 14.6516C16.2766 13.9883 16.5372 13.1612 16.4941 12.3216C16.4511 11.482 16.1072 10.686 15.5255 10.0791C14.9437 9.47214 14.163 9.09488 13.3259 9.01628C12.4889 8.93768 11.6516 9.16299 10.967 9.651L9.50002 8.511V6.855ZM7.00002 3.5C7.00002 3.10218 7.15805 2.72065 7.43936 2.43934C7.72066 2.15804 8.10219 2 8.50002 2C8.89784 2 9.27938 2.15804 9.56068 2.43934C9.84198 2.72065 10 3.10218 10 3.5C10 3.89783 9.84198 4.27936 9.56068 4.56066C9.27938 4.84197 8.89784 5 8.50002 5C8.10219 5 7.72066 4.84197 7.43936 4.56066C7.15805 4.27936 7.00002 3.89783 7.00002 3.5ZM11.803 11.595C11.808 11.59 11.813 11.585 11.816 11.579L11.828 11.563C12.0761 11.2542 12.4362 11.0561 12.8297 11.0118C13.2233 10.9675 13.6184 11.0807 13.9289 11.3266C14.2393 11.5726 14.4399 11.9313 14.4869 12.3246C14.5338 12.7179 14.4233 13.1137 14.1795 13.4258C13.9356 13.738 13.5783 13.941 13.1853 13.9906C12.7924 14.0402 12.3958 13.9324 12.082 13.6906C11.7683 13.4489 11.5628 13.0929 11.5106 12.7003C11.4583 12.3077 11.5634 11.9104 11.803 11.595ZM4.00002 11C4.47402 11 4.89702 11.22 5.17102 11.563L5.18402 11.579L5.19702 11.596C5.40079 11.8658 5.50743 12.1966 5.49963 12.5346C5.49183 12.8726 5.37006 13.1981 5.15406 13.4582C4.93806 13.7184 4.64051 13.8979 4.30968 13.9677C3.97884 14.0375 3.63413 13.9935 3.33145 13.8428C3.02878 13.6921 2.7859 13.4435 2.64221 13.1374C2.49853 12.8314 2.46246 12.4857 2.53987 12.1566C2.61727 11.8275 2.80361 11.5341 3.06866 11.3242C3.3337 11.1142 3.6619 11 4.00002 11Z" fill="#8470FF"/>
</g>
<defs>
<clipPath id="clip0_104_4366">
<rect width="16" height="16" fill="white" transform="translate(0.5)"/>
</clipPath>
</defs>
</svg>
