<svg width="17" height="16" viewBox="0 0 17 16" fill="none" xmlns="http://www.w3.org/2000/svg">
<g id="icon-dashboard" clip-path="url(#clip0_104_4361)">
<path id="Vector" d="M6.436 0.278C7.10891 0.0956017 7.80281 0.00213993 8.5 0C10.0823 0 11.629 0.469192 12.9446 1.34824C14.2602 2.22729 15.2855 3.47672 15.891 4.93853C16.4965 6.40034 16.655 8.00887 16.3463 9.56072C16.0376 11.1126 15.2757 12.538 14.1569 13.6569C13.038 14.7757 11.6126 15.5376 10.0607 15.8463C8.50887 16.155 6.90034 15.9965 5.43853 15.391C3.97672 14.7855 2.72729 13.7602 1.84824 12.4446C0.969192 11.129 0.5 9.58225 0.5 8C0.5 7.278 0.604 6.587 0.778 5.936C0.810099 5.80721 0.867515 5.6861 0.946902 5.57973C1.02629 5.47335 1.12606 5.38385 1.24039 5.31643C1.35472 5.24902 1.48134 5.20503 1.61284 5.18705C1.74435 5.16907 1.87812 5.17745 2.00635 5.2117C2.13459 5.24595 2.25472 5.30538 2.35975 5.38654C2.46478 5.46769 2.5526 5.56895 2.6181 5.68439C2.68359 5.79984 2.72545 5.92717 2.74123 6.05896C2.75701 6.19074 2.74639 6.32436 2.71 6.452C2.57273 6.95662 2.50213 7.47705 2.5 8C2.5 9.18669 2.85189 10.3467 3.51118 11.3334C4.17047 12.3201 5.10754 13.0892 6.2039 13.5433C7.30026 13.9974 8.50666 14.1162 9.67054 13.8847C10.8344 13.6532 11.9035 13.0818 12.7426 12.2426C13.5818 11.4035 14.1532 10.3344 14.3847 9.17054C14.6162 8.00666 14.4974 6.80026 14.0433 5.7039C13.5892 4.60754 12.8201 3.67047 11.8334 3.01118C10.8467 2.35189 9.68669 2 8.5 2C7.97 2 7.455 2.076 6.952 2.21C6.82436 2.24639 6.69074 2.25701 6.55896 2.24123C6.42717 2.22545 6.29984 2.18359 6.18439 2.1181C6.06895 2.0526 5.96769 1.96478 5.88654 1.85975C5.80538 1.75472 5.74595 1.63459 5.7117 1.50635C5.67745 1.37812 5.66907 1.24435 5.68705 1.11284C5.70503 0.981336 5.74902 0.854725 5.81643 0.740391C5.88385 0.626057 5.97335 0.526289 6.07973 0.446902C6.1861 0.367515 6.30721 0.310099 6.436 0.278Z" fill="#8470FF"/>
<path id="Vector_2" d="M6.56804 7.48204C6.4892 7.77836 6.47945 8.08883 6.53953 8.38951C6.59961 8.69019 6.72792 8.97307 6.91458 9.21634C7.10123 9.45961 7.34125 9.65678 7.61613 9.79266C7.89101 9.92853 8.19341 9.99948 8.50004 10C8.78467 9.99991 9.06599 9.93903 9.3252 9.82147C9.58442 9.70391 9.81555 9.53237 10.0032 9.31832C10.1908 9.10428 10.3305 8.85265 10.4131 8.58027C10.4957 8.30788 10.5192 8.02101 10.482 7.73882C10.4448 7.45663 10.3478 7.18563 10.1975 6.94392C10.0472 6.70221 9.84708 6.49537 9.61043 6.33721C9.37379 6.17906 9.10611 6.07324 8.8253 6.02682C8.54448 5.9804 8.25699 5.99445 7.98204 6.06804L4.20704 2.29304C4.01844 2.11088 3.76584 2.01009 3.50364 2.01237C3.24144 2.01465 2.99063 2.11981 2.80522 2.30522C2.61981 2.49063 2.51465 2.74144 2.51237 3.00364C2.51009 3.26584 2.61088 3.51844 2.79304 3.70704L6.56804 7.48204Z" fill="#8470FF"/>
</g>
<defs>
<clipPath id="clip0_104_4361">
<rect width="16" height="16" fill="white" transform="translate(0.5)"/>
</clipPath>
</defs>
</svg>
