<svg width="33" height="32" viewBox="0 0 33 32" fill="none" xmlns="http://www.w3.org/2000/svg">
<g id="main-logo" clip-path="url(#clip0_104_4356)">
<path id="Vector" d="M32.4559 14.7999C31.8719 6.91995 25.5799 0.627945 17.6999 0.0439453V5.75995C17.6999 8.1575 18.6524 10.4569 20.3477 12.1522C22.043 13.8475 24.3424 14.7999 26.7399 14.7999H32.4559ZM15.2999 26.2399V31.9559C7.41995 31.3719 1.12995 25.0799 0.543945 17.1999H6.25995C8.6575 17.1999 10.9569 18.1524 12.6522 19.8477C14.3475 21.543 15.2999 23.8424 15.2999 26.2399ZM26.7399 17.1999H32.4559C31.8719 25.0799 25.5799 31.3719 17.6999 31.9559V26.2399C17.6999 23.8424 18.6524 21.543 20.3477 19.8477C22.043 18.1524 24.3424 17.1999 26.7399 17.1999ZM0.543945 14.7999C1.12995 6.91995 7.41995 0.627945 15.2999 0.0439453V5.75995C15.2999 8.1575 14.3475 10.4569 12.6522 12.1522C10.9569 13.8475 8.6575 14.7999 6.25995 14.7999H0.543945Z" fill="#9E79F4"/>
</g>
<defs>
<clipPath id="clip0_104_4356">
<rect width="32" height="32" fill="white" transform="translate(0.5)"/>
</clipPath>
</defs>
</svg>
