<svg width="17" height="16" viewBox="0 0 17 16" fill="none" xmlns="http://www.w3.org/2000/svg">
<g id="Mosaic HTML Demo - Home 2" clip-path="url(#clip0_104_4389)">
<path id="Vector" d="M12.7063 0.769155C12.4625 0.525344 12.1731 0.331941 11.8546 0.199989C11.5361 0.0680372 11.1947 0.00012207 10.85 0.00012207C10.5052 0.00012207 10.1638 0.0680372 9.84532 0.199989C9.52681 0.331941 9.23741 0.525344 8.99365 0.769155L1.63133 8.1317C1.50916 8.25356 1.42575 8.40883 1.39158 8.57797L0.51657 12.9531C0.488254 13.0944 0.495274 13.2406 0.537008 13.3785C0.578741 13.5164 0.653896 13.6419 0.755796 13.7438C0.857695 13.8457 0.983185 13.9209 1.12112 13.9626C1.25905 14.0044 1.40516 14.0114 1.54645 13.9831L5.92149 13.108C6.09084 13.0743 6.24642 12.9911 6.36862 12.8691L13.7309 5.5066C14.2231 5.01432 14.4995 4.34673 14.4995 3.65065C14.4995 2.95456 14.2231 2.28698 13.7309 1.7947L12.7063 0.769155ZM10.23 2.00645C10.3941 1.84241 10.6166 1.75026 10.8487 1.75026C11.0807 1.75026 11.3032 1.84241 11.4673 2.00645L12.4928 3.032C12.6568 3.19609 12.749 3.41862 12.749 3.65065C12.749 3.88267 12.6568 4.1052 12.4928 4.2693L5.31774 11.4446L2.48971 12.0099L3.05497 9.18174L10.23 2.00645Z" fill="#878787"/>
<path id="Vector_2" d="M10.5 14C10.2348 14 9.98043 14.079 9.79289 14.2197C9.60536 14.3603 9.5 14.5511 9.5 14.75C9.5 14.9489 9.60536 15.1397 9.79289 15.2803C9.98043 15.421 10.2348 15.5 10.5 15.5H15.5C15.7652 15.5 16.0196 15.421 16.2071 15.2803C16.3946 15.1397 16.5 14.9489 16.5 14.75C16.5 14.5511 16.3946 14.3603 16.2071 14.2197C16.0196 14.079 15.7652 14 15.5 14H10.5Z" fill="#878787"/>
</g>
<defs>
<clipPath id="clip0_104_4389">
<rect width="16" height="16" fill="white" transform="translate(0.5)"/>
</clipPath>
</defs>
</svg>
