<svg width="17" height="16" viewBox="0 0 17 16" fill="none" xmlns="http://www.w3.org/2000/svg">
<g id="shopping-bag">
<path id="Vector" d="M4.5 1L2.5 3.8V13.6C2.5 13.9713 2.64048 14.3274 2.89052 14.5899C3.14057 14.8525 3.47971 15 3.83333 15H13.1667C13.5203 15 13.8594 14.8525 14.1095 14.5899C14.3595 14.3274 14.5 13.9713 14.5 13.6V3.8L13.5 2.5L12.5 1H8.5H4.5Z" stroke="#8470FF" stroke-width="1.5" stroke-linecap="round" stroke-linejoin="round"/>
<path id="Vector_2" d="M2.5 4H14.5" stroke="#8470FF" stroke-width="1.5" stroke-linecap="round" stroke-linejoin="round"/>
<path id="Vector_3" d="M11.1667 6.66663C11.1667 7.37387 10.8858 8.05215 10.3857 8.55224C9.88556 9.05234 9.20728 9.33329 8.50004 9.33329C7.7928 9.33329 7.11452 9.05234 6.61442 8.55224C6.11433 8.05215 5.83337 7.37387 5.83337 6.66663" stroke="#8470FF" stroke-width="1.5" stroke-linecap="round" stroke-linejoin="round"/>
</g>
</svg>
